PathFileType	4	(X/Y/Z)	C:/Users/beibeiliu/ov580/test_trc/User3\out8_training_dense_left.trc
DataRate	CameraRate	NumFrames	NumMarkers	Units	OrigDataRate	OrigDataStartFrame	OrigNumFrames
120	120	8	19	mm	120	188	500
Frame#	Time	ThumbCMC			ThumbMCP			ThumbIP			ThumbTip			IndexMCP			IndexPIP			IndexTip			MiddleMCP			MiddlePIP			MiddleTip			RingMCP			RingPIP			RingTip			PinkyMCP			PinkyPIP			PinkyTip			BackHand1			BackHand2			BackHand3	
		X0	Y0	Z0	X1	Y1	Z1	X2	Y2	Z2	X3	Y3	Z3	X4	Y4	Z4	X5	Y5	Z5	X6	Y6	Z6	X7	Y7	Z7	X8	Y8	Z8	X9	Y9	Z9	X10	Y10	Z10	X11	Y11	Z11	X12	Y12	Z12	X13	Y13	Z13	X14	Y14	Z14	X15	Y15	Z15	X16	Y16	Z16	X17	Y17	Z17	X18	Y18	Z18	
187	1.55833	-156.54	52.7081	26.7683	-144.302	52.7006	-7.27876	-139.459	41.269	-38.7271	-143.647	15.6798	-48.8004	-207.682	47.0875	-32.2089	-211.574	53.0357	-56.3616	-207.655	52.3481	-87.5453	-191.822	27.7921	-41.9333	-161.405	24.835	-53.4647	-147.968	26.9137	-17.8934	-183.975	10.0167	-36.2071	-154.639	10.1026	-43.0371	-141.717	13.1805	-13.6441	-195.163	-10.6795	-19.2469	-198.64	-9.47581	-41.0145	-198.195	-6.69562	-64.7949	-197.168	7.674	21.8368	-185.677	2.24999	50.4639	-192.754	34.7645	35.6335	
188	1.56667	-149.352	52.9988	26.4206	-139.648	49.9891	-10.6146	-142.65	37.1652	-40.08	-155.134	11.9803	-46.5544	-203.807	61.4714	-27.3005	-207.579	67.3031	-53.3297	-206.663	63.2629	-82.8659	-197.292	33.2179	-35.0784	-167.402	27.5705	-51.7027	-152.368	26.0505	-11.3908	-194.217	14.3362	-32.5272	-165.498	5.72911	-41.157	-151.13	10.6503	-10.5153	-208.406	4.21486	-16.9832	-213.359	2.04007	-34.9265	-216.987	2.43127	-57.8539	-206.372	15.654	26.1188	-190.06	12.3639	56.8731	-189.877	45.6067	37.5654	
189	1.575	-142.997	48.4103	25.0506	-139.12	42.1819	-9.11406	-141.347	32.3361	-39.5098	-162.169	11.3397	-49.2943	-192.329	73.2091	-23.9756	-197.217	78.4867	-53.8337	-196.328	76.4238	-80.2645	-194.822	45.1338	-35.1335	-170.859	27.2647	-51.0841	-157.319	21.0937	-12.3676	-197.047	27.6426	-32.4641	-172.864	6.40055	-40.0721	-156.573	8.34397	-9.89296	-216.367	17.5014	-14.7161	-218.664	19.8134	-33.0466	-225.572	22.2577	-57.2288	-203.763	31.4275	31.7783	-193.111	21.4563	58.6147	-178.982	53.0678	39.2706	
190	1.58333	-135.442	41.4309	23.0193	-134.555	33.4587	-14.206	-144.948	24.5284	-42.4372	-168.205	10.7052	-49.1263	-180.875	75.0381	-24.9362	-186.723	78.6278	-53.3715	-184.54	76.5462	-83.9747	-189.991	50.0975	-36.6902	-168.115	26.8519	-50.1836	-160.441	18.0544	-13.382	-201.521	31.104	-28.7365	-180.321	12.0166	-42.3007	-165.149	3.09542	-11.7271	-215.53	27.6695	-9.95191	-221.403	33.1193	-33.4129	-228.605	38.3695	-57.1722	-204.12	38.2966	26.7635	-194.471	28.0436	54.0255	-169.278	54.839	41.0345	
191	1.59167	-136.364	33.609	20.3174	-131.646	24.3601	-12.4314	-144.877	16.9584	-39.4268	-172.462	9.09951	-45.1218	-170.771	74.1091	-30.9701	-173.48	78.5807	-60.933	-174.334	69.9053	-86.6067	-184.246	50.8127	-39.257	-172.869	23.0387	-52.1309	-162.58	16.244	-11.5825	-195.092	38.6324	-34.3513	-184.974	10.099	-42.1945	-171.361	1.80013	-13.0967	-212.586	37.6112	-13.77	-220.744	41.4915	-33.6544	-223.723	45.372	-59.7796	-200.045	46.7834	26.162	-192.629	35.6915	52.0536	-166.663	52.6055	37.9971	
192	1.6	-130.823	25.0191	19.8706	-131.987	14.7581	-16.1999	-150.08	8.48001	-40.6329	-177.779	1.07042	-47.5599	-162.819	68.4789	-38.5714	-166.927	66.7086	-64.4993	-162.54	54.1957	-93.6966	-180.738	46.607	-40.5363	-174.23	16.1208	-51.8428	-164.774	10.105	-14.0028	-196.366	34.4035	-35.3686	-187.55	5.68842	-43.2129	-170.785	-0.137188	-13.3574	-215.295	37.8076	-15.1131	-220.539	41.57	-35.9376	-225.213	44.1875	-60.2225	-194.086	47.5145	25.2215	-185.381	37.8454	53.2265	-159.814	51.6973	33.428	
193	1.60833	-129.591	20.0838	21.0687	-134.014	4.94606	-12.5595	-152.004	-2.80901	-39.9548	-176.598	-8.65587	-45.9215	-158.956	57.443	-45.5721	-159.639	51.5888	-72.4893	-163.526	34.4646	-96.2657	-177.662	35.2614	-47.8464	-173.882	5.95849	-52.4976	-166.085	4.59358	-13.3055	-195.826	26.5946	-38.299	-187.254	-2.00514	-41.5108	-175.874	-8.04563	-12.926	-209.057	34.3133	-16.7533	-218.291	35.3506	-39.7255	-222.765	34.5294	-66.6823	-193.565	47.6039	17.9083	-189.031	41.7955	50.2952	-155.807	50.6832	27.9576	
194	1.61667	-132.419	15.8459	17.9286	-131.576	-3.97238	-11.9297	-148.386	-15.743	-32.7092	-176.369	-16.9792	-36.5185	-157.452	43.0311	-48.7872	-157.78	31.6874	-78.5562	-157.586	14.9983	-95.5812	-174.596	25.1129	-48.8442	-170.95	-8.00511	-49.1694	-165.533	-3.80522	-12.6742	-193.236	19.0731	-36.6587	-188.598	-11.4071	-39.6504	-172.569	-11.7642	-6.1431	-209.026	27.2563	-20.0567	-213.202	23.6571	-45.7139	-217.322	19.4198	-68.3241	-190.724	45.1082	16.1743	-185.084	40.8396	45.6741	-155.837	47.6998	26.0441	
